<mxfile host="app.diagrams.net" modified="2020-05-22T03:58:42.135Z" agent="5.0 (Macintosh; Intel Mac OS X 10_15_4) AppleWebKit/537.36 (KHTML, like Gecko) Chrome/81.0.4044.138 Safari/537.36" etag="SU9x22lBQs1Mcl_vIL9h" version="13.0.1" type="github">
  <diagram id="Zzfzjqs9hriEUojt7hlY" name="第 1 页">
    <mxGraphModel dx="3388" dy="1037" grid="1" gridSize="10" guides="1" tooltips="1" connect="1" arrows="1" fold="1" page="0" pageScale="1" pageWidth="827" pageHeight="1169" math="0" shadow="0">
      <root>
        <mxCell id="0" />
        <mxCell id="1" parent="0" />
        <mxCell id="QM-mB1DQJfA2_vQhXkPo-10" style="edgeStyle=orthogonalEdgeStyle;rounded=0;orthogonalLoop=1;jettySize=auto;html=1;exitX=0.5;exitY=1;exitDx=0;exitDy=0;entryX=0.5;entryY=0;entryDx=0;entryDy=0;endArrow=none;endFill=0;" parent="1" source="QM-mB1DQJfA2_vQhXkPo-1" target="QM-mB1DQJfA2_vQhXkPo-8" edge="1">
          <mxGeometry relative="1" as="geometry" />
        </mxCell>
        <mxCell id="QM-mB1DQJfA2_vQhXkPo-12" style="edgeStyle=orthogonalEdgeStyle;rounded=0;orthogonalLoop=1;jettySize=auto;html=1;exitX=1;exitY=0.5;exitDx=0;exitDy=0;entryX=0;entryY=0.5;entryDx=0;entryDy=0;endArrow=none;endFill=0;" parent="1" source="QM-mB1DQJfA2_vQhXkPo-1" target="QM-mB1DQJfA2_vQhXkPo-6" edge="1">
          <mxGeometry relative="1" as="geometry" />
        </mxCell>
        <mxCell id="QM-mB1DQJfA2_vQhXkPo-11" style="edgeStyle=orthogonalEdgeStyle;rounded=0;orthogonalLoop=1;jettySize=auto;html=1;exitX=0.5;exitY=0;exitDx=0;exitDy=0;entryX=0.5;entryY=1;entryDx=0;entryDy=0;endArrow=none;endFill=0;" parent="1" source="QM-mB1DQJfA2_vQhXkPo-7" target="QM-mB1DQJfA2_vQhXkPo-8" edge="1">
          <mxGeometry relative="1" as="geometry" />
        </mxCell>
        <mxCell id="QM-mB1DQJfA2_vQhXkPo-13" style="edgeStyle=orthogonalEdgeStyle;rounded=0;orthogonalLoop=1;jettySize=auto;html=1;exitX=1;exitY=0.5;exitDx=0;exitDy=0;entryX=0;entryY=0.5;entryDx=0;entryDy=0;endArrow=none;endFill=0;" parent="1" source="QM-mB1DQJfA2_vQhXkPo-7" target="QM-mB1DQJfA2_vQhXkPo-5" edge="1">
          <mxGeometry relative="1" as="geometry" />
        </mxCell>
        <mxCell id="QM-mB1DQJfA2_vQhXkPo-16" style="edgeStyle=orthogonalEdgeStyle;rounded=0;orthogonalLoop=1;jettySize=auto;html=1;exitX=0.5;exitY=1;exitDx=0;exitDy=0;entryX=0.5;entryY=0;entryDx=0;entryDy=0;endArrow=none;endFill=0;dashed=1;" parent="1" source="QM-mB1DQJfA2_vQhXkPo-6" target="QM-mB1DQJfA2_vQhXkPo-5" edge="1">
          <mxGeometry relative="1" as="geometry" />
        </mxCell>
        <mxCell id="QM-mB1DQJfA2_vQhXkPo-17" style="edgeStyle=orthogonalEdgeStyle;rounded=0;orthogonalLoop=1;jettySize=auto;html=1;exitX=0.5;exitY=1;exitDx=0;exitDy=0;entryX=0.5;entryY=0;entryDx=0;entryDy=0;endArrow=none;endFill=0;dashed=1;" parent="1" source="QM-mB1DQJfA2_vQhXkPo-15" target="QM-mB1DQJfA2_vQhXkPo-14" edge="1">
          <mxGeometry relative="1" as="geometry" />
        </mxCell>
        <mxCell id="QM-mB1DQJfA2_vQhXkPo-18" style="rounded=0;orthogonalLoop=1;jettySize=auto;html=1;exitX=0;exitY=0.5;exitDx=0;exitDy=0;entryX=0.5;entryY=0;entryDx=0;entryDy=0;endArrow=none;endFill=0;" parent="1" source="QM-mB1DQJfA2_vQhXkPo-15" target="QM-mB1DQJfA2_vQhXkPo-9" edge="1">
          <mxGeometry relative="1" as="geometry" />
        </mxCell>
        <mxCell id="QM-mB1DQJfA2_vQhXkPo-19" style="rounded=0;orthogonalLoop=1;jettySize=auto;html=1;exitX=0;exitY=0.5;exitDx=0;exitDy=0;entryX=0.5;entryY=1;entryDx=0;entryDy=0;endArrow=none;endFill=0;" parent="1" source="QM-mB1DQJfA2_vQhXkPo-14" target="QM-mB1DQJfA2_vQhXkPo-9" edge="1">
          <mxGeometry relative="1" as="geometry" />
        </mxCell>
        <mxCell id="QM-mB1DQJfA2_vQhXkPo-24" value="n" style="text;html=1;align=center;verticalAlign=middle;resizable=0;points=[];autosize=1;" parent="1" vertex="1">
          <mxGeometry x="-1660" y="36" width="20" height="20" as="geometry" />
        </mxCell>
        <mxCell id="QM-mB1DQJfA2_vQhXkPo-25" value="n" style="text;html=1;align=center;verticalAlign=middle;resizable=0;points=[];autosize=1;" parent="1" vertex="1">
          <mxGeometry x="-1660" y="222" width="20" height="20" as="geometry" />
        </mxCell>
        <mxCell id="QM-mB1DQJfA2_vQhXkPo-26" value="n" style="text;html=1;align=center;verticalAlign=middle;resizable=0;points=[];autosize=1;" parent="1" vertex="1">
          <mxGeometry x="-1200" y="30" width="20" height="20" as="geometry" />
        </mxCell>
        <mxCell id="QM-mB1DQJfA2_vQhXkPo-27" value="n" style="text;html=1;align=center;verticalAlign=middle;resizable=0;points=[];autosize=1;" parent="1" vertex="1">
          <mxGeometry x="-1200" y="216" width="20" height="20" as="geometry" />
        </mxCell>
        <mxCell id="QM-mB1DQJfA2_vQhXkPo-1" value="话术行业" style="swimlane;fontStyle=0;childLayout=stackLayout;horizontal=1;startSize=26;fillColor=none;horizontalStack=0;resizeParent=1;resizeParentMax=0;resizeLast=0;collapsible=1;marginBottom=0;" parent="1" vertex="1" collapsed="1">
          <mxGeometry x="-1920" y="10" width="80" height="26" as="geometry">
            <mxRectangle x="-1920" y="10" width="140" height="52" as="alternateBounds" />
          </mxGeometry>
        </mxCell>
        <mxCell id="QM-mB1DQJfA2_vQhXkPo-7" value="线路行业" style="swimlane;fontStyle=0;childLayout=stackLayout;horizontal=1;startSize=26;fillColor=none;horizontalStack=0;resizeParent=1;resizeParentMax=0;resizeLast=0;collapsible=1;marginBottom=0;" parent="1" vertex="1" collapsed="1">
          <mxGeometry x="-1920" y="242" width="80" height="26" as="geometry">
            <mxRectangle x="-1920" y="242" width="140" height="52" as="alternateBounds" />
          </mxGeometry>
        </mxCell>
        <mxCell id="QM-mB1DQJfA2_vQhXkPo-5" value="线路" style="swimlane;fontStyle=0;childLayout=stackLayout;horizontal=1;startSize=26;fillColor=none;horizontalStack=0;resizeParent=1;resizeParentMax=0;resizeLast=0;collapsible=1;marginBottom=0;" parent="1" vertex="1" collapsed="1">
          <mxGeometry x="-1690" y="242" width="60" height="26" as="geometry">
            <mxRectangle x="-1690" y="242" width="140" height="52" as="alternateBounds" />
          </mxGeometry>
        </mxCell>
        <mxCell id="QM-mB1DQJfA2_vQhXkPo-6" value="话术" style="swimlane;fontStyle=0;childLayout=stackLayout;horizontal=1;startSize=26;fillColor=none;horizontalStack=0;resizeParent=1;resizeParentMax=0;resizeLast=0;collapsible=1;marginBottom=0;" parent="1" vertex="1" collapsed="1">
          <mxGeometry x="-1690" y="10" width="60" height="26" as="geometry">
            <mxRectangle x="-1690" y="10" width="140" height="52" as="alternateBounds" />
          </mxGeometry>
        </mxCell>
        <mxCell id="QM-mB1DQJfA2_vQhXkPo-8" value="话术行业与线路行业关联" style="swimlane;fontStyle=0;childLayout=stackLayout;horizontal=1;startSize=26;fillColor=none;horizontalStack=0;resizeParent=1;resizeParentMax=0;resizeLast=0;collapsible=1;marginBottom=0;" parent="1" vertex="1" collapsed="1">
          <mxGeometry x="-1960" y="120" width="160" height="26" as="geometry">
            <mxRectangle x="-1920" y="120" width="140" height="52" as="alternateBounds" />
          </mxGeometry>
        </mxCell>
        <mxCell id="QM-mB1DQJfA2_vQhXkPo-15" value="话术" style="swimlane;fontStyle=0;childLayout=stackLayout;horizontal=1;startSize=26;fillColor=none;horizontalStack=0;resizeParent=1;resizeParentMax=0;resizeLast=0;collapsible=1;marginBottom=0;" parent="1" vertex="1" collapsed="1">
          <mxGeometry x="-1230" y="4" width="60" height="26" as="geometry">
            <mxRectangle x="-1130" y="10" width="140" height="52" as="alternateBounds" />
          </mxGeometry>
        </mxCell>
        <mxCell id="QM-mB1DQJfA2_vQhXkPo-14" value="线路" style="swimlane;fontStyle=0;childLayout=stackLayout;horizontal=1;startSize=26;fillColor=none;horizontalStack=0;resizeParent=1;resizeParentMax=0;resizeLast=0;collapsible=1;marginBottom=0;" parent="1" vertex="1" collapsed="1">
          <mxGeometry x="-1230" y="236" width="60" height="26" as="geometry">
            <mxRectangle x="-1130" y="242" width="140" height="52" as="alternateBounds" />
          </mxGeometry>
        </mxCell>
        <mxCell id="QM-mB1DQJfA2_vQhXkPo-9" value="行业" style="swimlane;fontStyle=0;childLayout=stackLayout;horizontal=1;startSize=26;fillColor=none;horizontalStack=0;resizeParent=1;resizeParentMax=0;resizeLast=0;collapsible=1;marginBottom=0;" parent="1" vertex="1" collapsed="1">
          <mxGeometry x="-1470" y="114" width="60" height="26" as="geometry">
            <mxRectangle x="-1370" y="120" width="140" height="52" as="alternateBounds" />
          </mxGeometry>
        </mxCell>
        <mxCell id="MD9Luy-LMuzniRtZrWwh-1" value="原数据关系：" style="text;html=1;align=center;verticalAlign=middle;resizable=0;points=[];autosize=1;fontStyle=1;fontSize=13;" vertex="1" parent="1">
          <mxGeometry x="-1960" y="-77" width="90" height="20" as="geometry" />
        </mxCell>
        <mxCell id="MD9Luy-LMuzniRtZrWwh-2" value="新数据关系：" style="text;html=1;align=center;verticalAlign=middle;resizable=0;points=[];autosize=1;fontStyle=1;fontSize=13;" vertex="1" parent="1">
          <mxGeometry x="-1470" y="-77" width="90" height="20" as="geometry" />
        </mxCell>
        <mxCell id="MD9Luy-LMuzniRtZrWwh-3" value="话术行业配置&lt;br&gt;（多级行业）&lt;br&gt;talk_industry" style="rounded=0;whiteSpace=wrap;html=1;fontSize=13;fillColor=#e1d5e7;strokeColor=#9673a6;" vertex="1" parent="1">
          <mxGeometry x="-1520" y="660" width="120" height="60" as="geometry" />
        </mxCell>
        <mxCell id="MD9Luy-LMuzniRtZrWwh-18" style="rounded=0;orthogonalLoop=1;jettySize=auto;html=1;exitX=0.5;exitY=1;exitDx=0;exitDy=0;entryX=0;entryY=0.5;entryDx=0;entryDy=0;endArrow=none;endFill=0;fontSize=13;startArrow=block;startFill=0;" edge="1" parent="1" source="MD9Luy-LMuzniRtZrWwh-4" target="MD9Luy-LMuzniRtZrWwh-17">
          <mxGeometry relative="1" as="geometry" />
        </mxCell>
        <mxCell id="MD9Luy-LMuzniRtZrWwh-4" value="线路行业配置&lt;br&gt;（一级行业单选）&lt;br&gt;line_industry" style="rounded=0;whiteSpace=wrap;html=1;fontSize=13;fillColor=#fff2cc;strokeColor=#d6b656;" vertex="1" parent="1">
          <mxGeometry x="-1860" y="660" width="120" height="60" as="geometry" />
        </mxCell>
        <mxCell id="MD9Luy-LMuzniRtZrWwh-11" style="edgeStyle=orthogonalEdgeStyle;rounded=0;orthogonalLoop=1;jettySize=auto;html=1;exitX=1;exitY=0.5;exitDx=0;exitDy=0;entryX=0;entryY=0.5;entryDx=0;entryDy=0;fontSize=13;endArrow=none;endFill=0;startArrow=block;startFill=1;" edge="1" parent="1" source="MD9Luy-LMuzniRtZrWwh-5" target="MD9Luy-LMuzniRtZrWwh-9">
          <mxGeometry relative="1" as="geometry" />
        </mxCell>
        <mxCell id="MD9Luy-LMuzniRtZrWwh-12" style="edgeStyle=orthogonalEdgeStyle;rounded=0;orthogonalLoop=1;jettySize=auto;html=1;exitX=0.5;exitY=1;exitDx=0;exitDy=0;entryX=0.5;entryY=0;entryDx=0;entryDy=0;endArrow=block;endFill=1;fontSize=13;" edge="1" parent="1" source="MD9Luy-LMuzniRtZrWwh-5" target="MD9Luy-LMuzniRtZrWwh-7">
          <mxGeometry relative="1" as="geometry" />
        </mxCell>
        <mxCell id="MD9Luy-LMuzniRtZrWwh-5" value="&lt;font color=&quot;#cc0000&quot;&gt;&lt;b&gt;线路&lt;/b&gt;&lt;/font&gt;（&lt;font style=&quot;font-size: 8px&quot;&gt;手机卡、SIP话机、固话、训练账号的行业&lt;/font&gt;）&lt;br&gt;voip_caller_account" style="rounded=0;whiteSpace=wrap;html=1;fontSize=13;fillColor=#bac8d3;strokeColor=#23445d;" vertex="1" parent="1">
          <mxGeometry x="-2125" y="540" width="180" height="60" as="geometry" />
        </mxCell>
        <mxCell id="MD9Luy-LMuzniRtZrWwh-14" style="edgeStyle=orthogonalEdgeStyle;rounded=0;orthogonalLoop=1;jettySize=auto;html=1;exitX=0.5;exitY=1;exitDx=0;exitDy=0;entryX=0.5;entryY=0;entryDx=0;entryDy=0;endArrow=block;endFill=1;fontSize=13;" edge="1" parent="1" source="MD9Luy-LMuzniRtZrWwh-6" target="MD9Luy-LMuzniRtZrWwh-3">
          <mxGeometry relative="1" as="geometry" />
        </mxCell>
        <mxCell id="MD9Luy-LMuzniRtZrWwh-6" value="&lt;font&gt;&lt;b&gt;话术&lt;/b&gt;&lt;/font&gt;" style="rounded=0;whiteSpace=wrap;html=1;fontSize=13;strokeWidth=1;fillColor=#f5f5f5;strokeColor=#666666;fontColor=#B3B3B3;" vertex="1" parent="1">
          <mxGeometry x="-1520" y="540" width="120" height="60" as="geometry" />
        </mxCell>
        <mxCell id="MD9Luy-LMuzniRtZrWwh-13" style="edgeStyle=orthogonalEdgeStyle;rounded=0;orthogonalLoop=1;jettySize=auto;html=1;exitX=1;exitY=0.5;exitDx=0;exitDy=0;entryX=0;entryY=0.5;entryDx=0;entryDy=0;endArrow=block;endFill=1;fontSize=13;startArrow=none;startFill=0;" edge="1" parent="1" source="MD9Luy-LMuzniRtZrWwh-7" target="MD9Luy-LMuzniRtZrWwh-4">
          <mxGeometry relative="1" as="geometry" />
        </mxCell>
        <mxCell id="MD9Luy-LMuzniRtZrWwh-7" value="线路扩展（无主叫、虚拟线路的行业，type=5为行业）&lt;br&gt;voip_caller_account_extend" style="rounded=0;whiteSpace=wrap;html=1;fontSize=13;fillColor=#bac8d3;strokeColor=#23445d;" vertex="1" parent="1">
          <mxGeometry x="-2125" y="660" width="180" height="60" as="geometry" />
        </mxCell>
        <mxCell id="MD9Luy-LMuzniRtZrWwh-9" value="线路账号&lt;br&gt;user_phone_number" style="rounded=0;whiteSpace=wrap;html=1;fontSize=13;fillColor=#bac8d3;strokeColor=#23445d;" vertex="1" parent="1">
          <mxGeometry x="-1890" y="540" width="180" height="60" as="geometry" />
        </mxCell>
        <mxCell id="MD9Luy-LMuzniRtZrWwh-15" style="rounded=0;orthogonalLoop=1;jettySize=auto;html=1;exitX=0;exitY=0.5;exitDx=0;exitDy=0;entryX=0.5;entryY=0;entryDx=0;entryDy=0;endArrow=block;endFill=1;fontSize=13;" edge="1" parent="1" source="MD9Luy-LMuzniRtZrWwh-10" target="MD9Luy-LMuzniRtZrWwh-9">
          <mxGeometry relative="1" as="geometry" />
        </mxCell>
        <mxCell id="MD9Luy-LMuzniRtZrWwh-16" style="rounded=0;orthogonalLoop=1;jettySize=auto;html=1;exitX=1;exitY=0.5;exitDx=0;exitDy=0;entryX=0.5;entryY=0;entryDx=0;entryDy=0;endArrow=block;endFill=1;fontSize=13;" edge="1" parent="1" source="MD9Luy-LMuzniRtZrWwh-10" target="MD9Luy-LMuzniRtZrWwh-6">
          <mxGeometry relative="1" as="geometry" />
        </mxCell>
        <mxCell id="MD9Luy-LMuzniRtZrWwh-10" value="智能外呼任务&lt;br&gt;（新建/编辑）" style="rounded=0;whiteSpace=wrap;html=1;fontSize=13;strokeWidth=1;fillColor=#f5f5f5;strokeColor=#666666;fontColor=#B3B3B3;" vertex="1" parent="1">
          <mxGeometry x="-1690" y="370" width="120" height="60" as="geometry" />
        </mxCell>
        <mxCell id="MD9Luy-LMuzniRtZrWwh-19" style="rounded=0;orthogonalLoop=1;jettySize=auto;html=1;exitX=1;exitY=0.5;exitDx=0;exitDy=0;entryX=0.5;entryY=1;entryDx=0;entryDy=0;endArrow=block;endFill=0;fontSize=13;" edge="1" parent="1" source="MD9Luy-LMuzniRtZrWwh-17" target="MD9Luy-LMuzniRtZrWwh-3">
          <mxGeometry relative="1" as="geometry" />
        </mxCell>
        <mxCell id="MD9Luy-LMuzniRtZrWwh-17" value="线路行业与话术行业绑定&lt;br&gt;（部分常用的有绑定关系）&lt;br&gt;talk_line_industry_bind" style="rounded=0;whiteSpace=wrap;html=1;fontSize=13;fillColor=#bac8d3;strokeColor=#23445d;" vertex="1" parent="1">
          <mxGeometry x="-1720" y="820" width="180" height="60" as="geometry" />
        </mxCell>
        <mxCell id="MD9Luy-LMuzniRtZrWwh-20" value="绑定" style="text;html=1;align=center;verticalAlign=middle;resizable=0;points=[];autosize=1;fontSize=13;" vertex="1" parent="1">
          <mxGeometry x="-1935" y="550" width="40" height="20" as="geometry" />
        </mxCell>
        <mxCell id="MD9Luy-LMuzniRtZrWwh-21" value="扩展" style="text;html=1;align=center;verticalAlign=middle;resizable=0;points=[];autosize=1;fontSize=13;" vertex="1" parent="1">
          <mxGeometry x="-2030" y="620" width="40" height="20" as="geometry" />
        </mxCell>
        <mxCell id="MD9Luy-LMuzniRtZrWwh-23" value="关联" style="text;html=1;align=center;verticalAlign=middle;resizable=0;points=[];autosize=1;fontSize=13;" vertex="1" parent="1">
          <mxGeometry x="-1740" y="470" width="40" height="20" as="geometry" />
        </mxCell>
        <mxCell id="MD9Luy-LMuzniRtZrWwh-24" value="关联" style="text;html=1;align=center;verticalAlign=middle;resizable=0;points=[];autosize=1;fontSize=13;" vertex="1" parent="1">
          <mxGeometry x="-1560" y="470" width="40" height="20" as="geometry" />
        </mxCell>
        <mxCell id="MD9Luy-LMuzniRtZrWwh-25" value="匹配" style="text;html=1;align=center;verticalAlign=middle;resizable=0;points=[];autosize=1;fontSize=13;" vertex="1" parent="1">
          <mxGeometry x="-1760" y="770" width="40" height="20" as="geometry" />
        </mxCell>
        <mxCell id="MD9Luy-LMuzniRtZrWwh-27" value="匹配" style="text;html=1;align=center;verticalAlign=middle;resizable=0;points=[];autosize=1;fontSize=13;" vertex="1" parent="1">
          <mxGeometry x="-1540" y="770" width="40" height="20" as="geometry" />
        </mxCell>
        <mxCell id="MD9Luy-LMuzniRtZrWwh-28" value="关联" style="text;html=1;align=center;verticalAlign=middle;resizable=0;points=[];autosize=1;fontSize=13;" vertex="1" parent="1">
          <mxGeometry x="-1920" y="670" width="40" height="20" as="geometry" />
        </mxCell>
        <mxCell id="MD9Luy-LMuzniRtZrWwh-30" value="关联" style="text;html=1;align=center;verticalAlign=middle;resizable=0;points=[];autosize=1;fontSize=13;" vertex="1" parent="1">
          <mxGeometry x="-1460" y="620" width="40" height="20" as="geometry" />
        </mxCell>
        <mxCell id="MD9Luy-LMuzniRtZrWwh-31" value="统一后行业配置&lt;br&gt;（原话术行业，多级行业）&lt;br&gt;talk_industry" style="rounded=0;whiteSpace=wrap;html=1;fontSize=13;fillColor=#1ba1e2;strokeColor=#006EAF;fontColor=#ffffff;" vertex="1" parent="1">
          <mxGeometry x="-772.5" y="680" width="175" height="60" as="geometry" />
        </mxCell>
        <mxCell id="MD9Luy-LMuzniRtZrWwh-34" style="edgeStyle=orthogonalEdgeStyle;rounded=0;orthogonalLoop=1;jettySize=auto;html=1;exitX=1;exitY=0.5;exitDx=0;exitDy=0;entryX=0;entryY=0.5;entryDx=0;entryDy=0;fontSize=13;endArrow=none;endFill=0;startArrow=block;startFill=1;" edge="1" source="MD9Luy-LMuzniRtZrWwh-36" target="MD9Luy-LMuzniRtZrWwh-41" parent="1">
          <mxGeometry relative="1" as="geometry" />
        </mxCell>
        <mxCell id="MD9Luy-LMuzniRtZrWwh-35" style="edgeStyle=orthogonalEdgeStyle;rounded=0;orthogonalLoop=1;jettySize=auto;html=1;exitX=0.5;exitY=1;exitDx=0;exitDy=0;entryX=0.5;entryY=0;entryDx=0;entryDy=0;endArrow=block;endFill=1;fontSize=13;" edge="1" source="MD9Luy-LMuzniRtZrWwh-36" target="MD9Luy-LMuzniRtZrWwh-40" parent="1">
          <mxGeometry relative="1" as="geometry" />
        </mxCell>
        <mxCell id="MD9Luy-LMuzniRtZrWwh-36" value="&lt;font color=&quot;#cc0000&quot;&gt;&lt;b&gt;线路&lt;/b&gt;&lt;/font&gt;（&lt;font style=&quot;font-size: 8px&quot;&gt;手机卡、SIP话机、固话、训练账号的行业&lt;/font&gt;）&lt;br&gt;voip_caller_account" style="rounded=0;whiteSpace=wrap;html=1;fontSize=13;fillColor=#bac8d3;strokeColor=#23445d;" vertex="1" parent="1">
          <mxGeometry x="-1180" y="560" width="180" height="60" as="geometry" />
        </mxCell>
        <mxCell id="MD9Luy-LMuzniRtZrWwh-37" style="edgeStyle=orthogonalEdgeStyle;rounded=0;orthogonalLoop=1;jettySize=auto;html=1;exitX=0.5;exitY=1;exitDx=0;exitDy=0;entryX=1;entryY=0.5;entryDx=0;entryDy=0;endArrow=block;endFill=1;fontSize=13;" edge="1" source="MD9Luy-LMuzniRtZrWwh-38" target="MD9Luy-LMuzniRtZrWwh-31" parent="1">
          <mxGeometry relative="1" as="geometry" />
        </mxCell>
        <mxCell id="MD9Luy-LMuzniRtZrWwh-38" value="&lt;font&gt;&lt;b&gt;话术&lt;/b&gt;&lt;/font&gt;" style="rounded=0;whiteSpace=wrap;html=1;fontSize=13;strokeWidth=1;fillColor=#f5f5f5;strokeColor=#666666;fontColor=#B3B3B3;" vertex="1" parent="1">
          <mxGeometry x="-575" y="560" width="120" height="60" as="geometry" />
        </mxCell>
        <mxCell id="MD9Luy-LMuzniRtZrWwh-39" style="edgeStyle=orthogonalEdgeStyle;rounded=0;orthogonalLoop=1;jettySize=auto;html=1;exitX=1;exitY=0.5;exitDx=0;exitDy=0;entryX=0;entryY=0.5;entryDx=0;entryDy=0;endArrow=block;endFill=1;fontSize=13;startArrow=none;startFill=0;" edge="1" source="MD9Luy-LMuzniRtZrWwh-40" target="MD9Luy-LMuzniRtZrWwh-31" parent="1">
          <mxGeometry relative="1" as="geometry">
            <mxPoint x="-915" y="710.0000000000002" as="targetPoint" />
          </mxGeometry>
        </mxCell>
        <mxCell id="MD9Luy-LMuzniRtZrWwh-40" value="线路扩展（无主叫、虚拟线路的行业，&lt;font color=&quot;#ff0000&quot;&gt;type=13&lt;/font&gt;为行业）&lt;br&gt;voip_caller_account_extend" style="rounded=0;whiteSpace=wrap;html=1;fontSize=13;fillColor=#bac8d3;strokeColor=#23445d;" vertex="1" parent="1">
          <mxGeometry x="-1180" y="680" width="180" height="60" as="geometry" />
        </mxCell>
        <mxCell id="MD9Luy-LMuzniRtZrWwh-41" value="线路账号&lt;br&gt;user_phone_number" style="rounded=0;whiteSpace=wrap;html=1;fontSize=13;fillColor=#bac8d3;strokeColor=#23445d;" vertex="1" parent="1">
          <mxGeometry x="-945" y="560" width="180" height="60" as="geometry" />
        </mxCell>
        <mxCell id="MD9Luy-LMuzniRtZrWwh-42" style="rounded=0;orthogonalLoop=1;jettySize=auto;html=1;exitX=0;exitY=0.5;exitDx=0;exitDy=0;entryX=0.5;entryY=0;entryDx=0;entryDy=0;endArrow=block;endFill=1;fontSize=13;" edge="1" source="MD9Luy-LMuzniRtZrWwh-44" target="MD9Luy-LMuzniRtZrWwh-41" parent="1">
          <mxGeometry relative="1" as="geometry" />
        </mxCell>
        <mxCell id="MD9Luy-LMuzniRtZrWwh-43" style="rounded=0;orthogonalLoop=1;jettySize=auto;html=1;exitX=1;exitY=0.5;exitDx=0;exitDy=0;entryX=0.5;entryY=0;entryDx=0;entryDy=0;endArrow=block;endFill=1;fontSize=13;" edge="1" source="MD9Luy-LMuzniRtZrWwh-44" target="MD9Luy-LMuzniRtZrWwh-38" parent="1">
          <mxGeometry relative="1" as="geometry" />
        </mxCell>
        <mxCell id="MD9Luy-LMuzniRtZrWwh-44" value="智能外呼任务&lt;br&gt;（新建/编辑）" style="rounded=0;whiteSpace=wrap;html=1;fontSize=13;strokeWidth=1;fillColor=#f5f5f5;strokeColor=#666666;fontColor=#B3B3B3;" vertex="1" parent="1">
          <mxGeometry x="-745" y="390" width="120" height="60" as="geometry" />
        </mxCell>
        <mxCell id="MD9Luy-LMuzniRtZrWwh-47" value="绑定" style="text;html=1;align=center;verticalAlign=middle;resizable=0;points=[];autosize=1;fontSize=13;" vertex="1" parent="1">
          <mxGeometry x="-990" y="570" width="40" height="20" as="geometry" />
        </mxCell>
        <mxCell id="MD9Luy-LMuzniRtZrWwh-48" value="扩展" style="text;html=1;align=center;verticalAlign=middle;resizable=0;points=[];autosize=1;fontSize=13;" vertex="1" parent="1">
          <mxGeometry x="-1085" y="640" width="40" height="20" as="geometry" />
        </mxCell>
        <mxCell id="MD9Luy-LMuzniRtZrWwh-49" value="关联" style="text;html=1;align=center;verticalAlign=middle;resizable=0;points=[];autosize=1;fontSize=13;" vertex="1" parent="1">
          <mxGeometry x="-795" y="490" width="40" height="20" as="geometry" />
        </mxCell>
        <mxCell id="MD9Luy-LMuzniRtZrWwh-50" value="关联" style="text;html=1;align=center;verticalAlign=middle;resizable=0;points=[];autosize=1;fontSize=13;" vertex="1" parent="1">
          <mxGeometry x="-615" y="490" width="40" height="20" as="geometry" />
        </mxCell>
        <mxCell id="MD9Luy-LMuzniRtZrWwh-53" value="关联" style="text;html=1;align=center;verticalAlign=middle;resizable=0;points=[];autosize=1;fontSize=13;" vertex="1" parent="1">
          <mxGeometry x="-900" y="690" width="40" height="20" as="geometry" />
        </mxCell>
        <mxCell id="MD9Luy-LMuzniRtZrWwh-54" value="关联" style="text;html=1;align=center;verticalAlign=middle;resizable=0;points=[];autosize=1;fontSize=13;" vertex="1" parent="1">
          <mxGeometry x="-515" y="660" width="40" height="20" as="geometry" />
        </mxCell>
      </root>
    </mxGraphModel>
  </diagram>
</mxfile>
